<svg xmlns="http://www.w3.org/2000/svg" width="1200" height="630" viewBox="0 0 1200 630" role="img">
<defs><linearGradient id="bgj1" x1="0" y1="0" x2="1" y2="1"><stop offset="0" stop-color="#0e3f3a"/><stop offset="1" stop-color="#08211f"/></linearGradient></defs>
<rect width="1200" height="630" fill="url(#bgj1)"/>
<circle cx="341" cy="555" r="2" fill="#5eead4" opacity="0.09"/><circle cx="91" cy="587" r="1" fill="#5eead4" opacity="0.13"/><circle cx="1058" cy="358" r="1" fill="#5eead4" opacity="0.13"/><circle cx="838" cy="533" r="3" fill="#5eead4" opacity="0.15"/><circle cx="832" cy="139" r="3" fill="#5eead4" opacity="0.15"/><circle cx="681" cy="278" r="2" fill="#5eead4" opacity="0.15"/><circle cx="719" cy="449" r="2" fill="#5eead4" opacity="0.11"/><circle cx="152" cy="223" r="1" fill="#5eead4" opacity="0.15"/><circle cx="950" cy="424" r="3" fill="#5eead4" opacity="0.06"/><circle cx="1102" cy="29" r="1" fill="#5eead4" opacity="0.15"/><circle cx="688" cy="398" r="2" fill="#5eead4" opacity="0.13"/><circle cx="181" cy="396" r="3" fill="#5eead4" opacity="0.11"/><circle cx="1090" cy="251" r="1" fill="#5eead4" opacity="0.08"/><circle cx="1013" cy="180" r="2" fill="#5eead4" opacity="0.09"/><circle cx="1028" cy="335" r="3" fill="#5eead4" opacity="0.15"/><circle cx="671" cy="248" r="2" fill="#5eead4" opacity="0.15"/><circle cx="1111" cy="549" r="2" fill="#5eead4" opacity="0.15"/><circle cx="346" cy="273" r="1" fill="#5eead4" opacity="0.06"/><circle cx="135" cy="110" r="1" fill="#5eead4" opacity="0.13"/><circle cx="225" cy="118" r="2" fill="#5eead4" opacity="0.08"/><circle cx="24" cy="364" r="1" fill="#5eead4" opacity="0.06"/><circle cx="93" cy="154" r="2" fill="#5eead4" opacity="0.09"/><circle cx="148" cy="383" r="2" fill="#5eead4" opacity="0.06"/><circle cx="422" cy="492" r="1" fill="#5eead4" opacity="0.08"/><circle cx="160" cy="604" r="1" fill="#5eead4" opacity="0.09"/><circle cx="642" cy="163" r="2" fill="#5eead4" opacity="0.08"/><circle cx="413" cy="403" r="2" fill="#5eead4" opacity="0.08"/><circle cx="205" cy="334" r="3" fill="#5eead4" opacity="0.09"/><circle cx="856" cy="588" r="1" fill="#5eead4" opacity="0.09"/><circle cx="1174" cy="559" r="3" fill="#5eead4" opacity="0.06"/><circle cx="229" cy="159" r="2" fill="#5eead4" opacity="0.11"/><circle cx="721" cy="353" r="2" fill="#5eead4" opacity="0.11"/><circle cx="444" cy="426" r="2" fill="#5eead4" opacity="0.11"/><circle cx="21" cy="465" r="3" fill="#5eead4" opacity="0.13"/><circle cx="646" cy="178" r="1" fill="#5eead4" opacity="0.06"/><circle cx="936" cy="423" r="1" fill="#5eead4" opacity="0.13"/><circle cx="1076" cy="517" r="2" fill="#5eead4" opacity="0.09"/><circle cx="928" cy="564" r="1" fill="#5eead4" opacity="0.06"/><circle cx="793" cy="558" r="1" fill="#5eead4" opacity="0.11"/><circle cx="1124" cy="586" r="2" fill="#5eead4" opacity="0.09"/><circle cx="565" cy="609" r="1" fill="#5eead4" opacity="0.09"/><circle cx="475" cy="348" r="2" fill="#5eead4" opacity="0.06"/><circle cx="1052" cy="517" r="1" fill="#5eead4" opacity="0.08"/><circle cx="1052" cy="350" r="1" fill="#5eead4" opacity="0.11"/><circle cx="261" cy="269" r="2" fill="#5eead4" opacity="0.06"/><circle cx="547" cy="214" r="1" fill="#5eead4" opacity="0.13"/><circle cx="1125" cy="376" r="2" fill="#5eead4" opacity="0.13"/><circle cx="469" cy="543" r="3" fill="#5eead4" opacity="0.13"/>
<rect x="0" y="0" width="1200" height="6" fill="#5eead4"/>
<g transform="translate(720,135) scale(1.22)" fill="none" stroke="#5eead4" stroke-width="6" stroke-linejoin="round" stroke-linecap="round" opacity="0.95">
  <line x1="20" y1="48" x2="150" y2="48"/>
  <line x1="20" y1="88" x2="118" y2="88"/>
  <line x1="20" y1="128" x2="96" y2="128"/>
  <line x1="20" y1="168" x2="78" y2="168"/>
  <circle cx="188" cy="92" r="38"/>
  <line x1="216" y1="120" x2="258" y2="168"/>
</g>
<rect x="90" y="470" width="46" height="4" rx="2" fill="#5eead4"/>
<text x="90" y="524" font-family="-apple-system, 'Segoe UI', Roboto, Arial, sans-serif" font-size="58" font-weight="700" fill="#ffffff" letter-spacing="-0.5">Janium</text>
</svg>
