<svg xmlns="http://www.w3.org/2000/svg" width="1200" height="630" viewBox="0 0 1200 630" role="img">
<defs><linearGradient id="bg" x1="0" y1="0" x2="1" y2="1"><stop offset="0" stop-color="#4a2f0e"/><stop offset="1" stop-color="#241606"/></linearGradient></defs>
<rect width="1200" height="630" fill="url(#bg)"/>
<circle cx="40" cy="200" r="2" fill="#f4c064" opacity="0.12"/><circle cx="308" cy="458" r="2" fill="#f4c064" opacity="0.08"/><circle cx="379" cy="466" r="2" fill="#f4c064" opacity="0.09"/><circle cx="461" cy="247" r="2" fill="#f4c064" opacity="0.11"/><circle cx="1068" cy="305" r="2" fill="#f4c064" opacity="0.10"/><circle cx="76" cy="19" r="3" fill="#f4c064" opacity="0.11"/><circle cx="958" cy="189" r="2" fill="#f4c064" opacity="0.08"/><circle cx="860" cy="3" r="3" fill="#f4c064" opacity="0.07"/><circle cx="694" cy="293" r="2" fill="#f4c064" opacity="0.06"/><circle cx="513" cy="535" r="2" fill="#f4c064" opacity="0.15"/><circle cx="132" cy="493" r="3" fill="#f4c064" opacity="0.07"/><circle cx="78" cy="587" r="2" fill="#f4c064" opacity="0.13"/><circle cx="624" cy="243" r="1" fill="#f4c064" opacity="0.07"/><circle cx="574" cy="569" r="1" fill="#f4c064" opacity="0.09"/><circle cx="188" cy="229" r="3" fill="#f4c064" opacity="0.08"/><circle cx="890" cy="622" r="2" fill="#f4c064" opacity="0.09"/><circle cx="745" cy="115" r="1" fill="#f4c064" opacity="0.05"/><circle cx="568" cy="34" r="2" fill="#f4c064" opacity="0.14"/><circle cx="1034" cy="592" r="1" fill="#f4c064" opacity="0.11"/><circle cx="255" cy="335" r="2" fill="#f4c064" opacity="0.15"/><circle cx="403" cy="261" r="3" fill="#f4c064" opacity="0.08"/><circle cx="1029" cy="69" r="2" fill="#f4c064" opacity="0.09"/><circle cx="272" cy="590" r="2" fill="#f4c064" opacity="0.09"/><circle cx="201" cy="174" r="2" fill="#f4c064" opacity="0.11"/><circle cx="876" cy="46" r="2" fill="#f4c064" opacity="0.13"/><circle cx="393" cy="405" r="2" fill="#f4c064" opacity="0.09"/><circle cx="475" cy="74" r="1" fill="#f4c064" opacity="0.12"/><circle cx="690" cy="67" r="2" fill="#f4c064" opacity="0.14"/><circle cx="649" cy="252" r="3" fill="#f4c064" opacity="0.08"/><circle cx="1070" cy="505" r="3" fill="#f4c064" opacity="0.13"/><circle cx="860" cy="253" r="2" fill="#f4c064" opacity="0.08"/><circle cx="901" cy="558" r="2" fill="#f4c064" opacity="0.10"/><circle cx="291" cy="436" r="2" fill="#f4c064" opacity="0.12"/><circle cx="1123" cy="75" r="2" fill="#f4c064" opacity="0.13"/><circle cx="964" cy="423" r="2" fill="#f4c064" opacity="0.08"/><circle cx="500" cy="172" r="2" fill="#f4c064" opacity="0.07"/><circle cx="126" cy="79" r="3" fill="#f4c064" opacity="0.06"/><circle cx="342" cy="210" r="2" fill="#f4c064" opacity="0.13"/><circle cx="718" cy="373" r="1" fill="#f4c064" opacity="0.08"/><circle cx="916" cy="336" r="1" fill="#f4c064" opacity="0.06"/><circle cx="312" cy="347" r="2" fill="#f4c064" opacity="0.08"/><circle cx="316" cy="119" r="2" fill="#f4c064" opacity="0.15"/><circle cx="526" cy="260" r="2" fill="#f4c064" opacity="0.11"/><circle cx="619" cy="221" r="1" fill="#f4c064" opacity="0.07"/><circle cx="915" cy="205" r="2" fill="#f4c064" opacity="0.07"/><circle cx="911" cy="165" r="2" fill="#f4c064" opacity="0.07"/>
<rect x="0" y="0" width="1200" height="6" fill="#f4c064"/>
<g transform="translate(760,150) scale(1.35)" fill="none" stroke="#f4c064" stroke-width="6" stroke-linejoin="round" stroke-linecap="round" opacity="0.95"><rect x="34" y="24" width="172" height="150" rx="4"/><rect x="54" y="44" width="132" height="110" rx="2"/><path d="M54 130 l38 -44 26 30 24 -20 30 34"/><circle cx="150" cy="74" r="12"/><line x1="80" y1="200" x2="160" y2="200" stroke-width="8"/></g>
<rect x="90" y="470" width="46" height="4" rx="2" fill="#f4c064"/>
<text x="90" y="524" font-family="-apple-system, 'Segoe UI', Roboto, Arial, sans-serif" font-size="58" font-weight="700" fill="#ffffff" letter-spacing="-0.5">Janium <tspan fill="#f4c064">Collect</tspan></text>
</svg>