<svg xmlns="http://www.w3.org/2000/svg" width="1200" height="630" viewBox="0 0 1200 630" role="img">
<defs><linearGradient id="bg" x1="0" y1="0" x2="1" y2="1"><stop offset="0" stop-color="#46220b"/><stop offset="1" stop-color="#231106"/></linearGradient></defs>
<rect width="1200" height="630" fill="url(#bg)"/>
<circle cx="271" cy="531" r="2" fill="#fb923c" opacity="0.09"/><circle cx="1149" cy="111" r="2" fill="#fb923c" opacity="0.11"/><circle cx="1068" cy="225" r="2" fill="#fb923c" opacity="0.09"/><circle cx="243" cy="561" r="3" fill="#fb923c" opacity="0.10"/><circle cx="800" cy="550" r="3" fill="#fb923c" opacity="0.07"/><circle cx="715" cy="588" r="3" fill="#fb923c" opacity="0.09"/><circle cx="120" cy="403" r="2" fill="#fb923c" opacity="0.07"/><circle cx="495" cy="211" r="3" fill="#fb923c" opacity="0.09"/><circle cx="362" cy="378" r="2" fill="#fb923c" opacity="0.12"/><circle cx="1005" cy="505" r="1" fill="#fb923c" opacity="0.10"/><circle cx="31" cy="267" r="2" fill="#fb923c" opacity="0.07"/><circle cx="91" cy="94" r="1" fill="#fb923c" opacity="0.05"/><circle cx="379" cy="546" r="2" fill="#fb923c" opacity="0.12"/><circle cx="33" cy="51" r="1" fill="#fb923c" opacity="0.14"/><circle cx="848" cy="270" r="1" fill="#fb923c" opacity="0.14"/><circle cx="628" cy="151" r="3" fill="#fb923c" opacity="0.09"/><circle cx="1193" cy="216" r="2" fill="#fb923c" opacity="0.12"/><circle cx="151" cy="383" r="3" fill="#fb923c" opacity="0.11"/><circle cx="677" cy="542" r="3" fill="#fb923c" opacity="0.10"/><circle cx="585" cy="125" r="2" fill="#fb923c" opacity="0.07"/><circle cx="344" cy="536" r="3" fill="#fb923c" opacity="0.14"/><circle cx="331" cy="42" r="1" fill="#fb923c" opacity="0.14"/><circle cx="1161" cy="458" r="2" fill="#fb923c" opacity="0.12"/><circle cx="793" cy="397" r="2" fill="#fb923c" opacity="0.07"/><circle cx="446" cy="418" r="1" fill="#fb923c" opacity="0.12"/><circle cx="435" cy="192" r="2" fill="#fb923c" opacity="0.08"/><circle cx="955" cy="95" r="1" fill="#fb923c" opacity="0.11"/><circle cx="315" cy="285" r="2" fill="#fb923c" opacity="0.12"/><circle cx="261" cy="523" r="3" fill="#fb923c" opacity="0.13"/><circle cx="693" cy="403" r="1" fill="#fb923c" opacity="0.09"/><circle cx="1196" cy="429" r="2" fill="#fb923c" opacity="0.07"/><circle cx="715" cy="135" r="2" fill="#fb923c" opacity="0.09"/><circle cx="174" cy="303" r="2" fill="#fb923c" opacity="0.06"/><circle cx="1175" cy="113" r="1" fill="#fb923c" opacity="0.11"/><circle cx="185" cy="382" r="2" fill="#fb923c" opacity="0.13"/><circle cx="740" cy="256" r="2" fill="#fb923c" opacity="0.10"/><circle cx="468" cy="87" r="1" fill="#fb923c" opacity="0.06"/><circle cx="69" cy="81" r="2" fill="#fb923c" opacity="0.05"/><circle cx="56" cy="170" r="2" fill="#fb923c" opacity="0.15"/><circle cx="588" cy="488" r="1" fill="#fb923c" opacity="0.14"/><circle cx="798" cy="25" r="2" fill="#fb923c" opacity="0.06"/><circle cx="355" cy="63" r="2" fill="#fb923c" opacity="0.07"/><circle cx="255" cy="235" r="1" fill="#fb923c" opacity="0.08"/><circle cx="188" cy="398" r="2" fill="#fb923c" opacity="0.13"/><circle cx="870" cy="274" r="2" fill="#fb923c" opacity="0.13"/><circle cx="879" cy="274" r="2" fill="#fb923c" opacity="0.05"/>
<rect x="0" y="0" width="1200" height="6" fill="#fb923c"/>
<g transform="translate(760,150) scale(1.35)" fill="none" stroke="#fb923c" stroke-width="6" stroke-linejoin="round" stroke-linecap="round" opacity="0.95"><path d="M40 40 h40 M40 40 v40 M200 40 h-40 M200 40 v40 M40 200 h40 M40 200 v-40 M200 200 h-40 M200 200 v-40" stroke-width="9"/><rect x="78" y="88" width="84" height="64" rx="6"/><line x1="30" y1="120" x2="210" y2="120" stroke-width="6" opacity="0.9"/></g>
<rect x="90" y="470" width="46" height="4" rx="2" fill="#fb923c"/>
<text x="90" y="524" font-family="-apple-system, 'Segoe UI', Roboto, Arial, sans-serif" font-size="58" font-weight="700" fill="#ffffff" letter-spacing="-0.5">Janium <tspan fill="#fb923c">Collect</tspan></text>
</svg>