<svg xmlns="http://www.w3.org/2000/svg" width="1200" height="630" viewBox="0 0 1200 630" role="img">
<defs><linearGradient id="bg" x1="0" y1="0" x2="1" y2="1"><stop offset="0" stop-color="#241a55"/><stop offset="1" stop-color="#12102e"/></linearGradient></defs>
<rect width="1200" height="630" fill="url(#bg)"/>
<circle cx="54" cy="374" r="1" fill="#93c5fd" opacity="0.07"/><circle cx="298" cy="193" r="1" fill="#93c5fd" opacity="0.14"/><circle cx="150" cy="527" r="1" fill="#93c5fd" opacity="0.06"/><circle cx="1101" cy="298" r="3" fill="#93c5fd" opacity="0.09"/><circle cx="821" cy="297" r="1" fill="#93c5fd" opacity="0.08"/><circle cx="555" cy="350" r="3" fill="#93c5fd" opacity="0.06"/><circle cx="488" cy="343" r="2" fill="#93c5fd" opacity="0.08"/><circle cx="343" cy="91" r="2" fill="#93c5fd" opacity="0.08"/><circle cx="1177" cy="167" r="2" fill="#93c5fd" opacity="0.14"/><circle cx="1045" cy="264" r="1" fill="#93c5fd" opacity="0.07"/><circle cx="310" cy="31" r="1" fill="#93c5fd" opacity="0.14"/><circle cx="254" cy="536" r="3" fill="#93c5fd" opacity="0.13"/><circle cx="570" cy="256" r="2" fill="#93c5fd" opacity="0.13"/><circle cx="390" cy="466" r="1" fill="#93c5fd" opacity="0.14"/><circle cx="640" cy="379" r="2" fill="#93c5fd" opacity="0.08"/><circle cx="967" cy="344" r="3" fill="#93c5fd" opacity="0.07"/><circle cx="420" cy="105" r="2" fill="#93c5fd" opacity="0.11"/><circle cx="552" cy="24" r="1" fill="#93c5fd" opacity="0.12"/><circle cx="312" cy="124" r="2" fill="#93c5fd" opacity="0.08"/><circle cx="1189" cy="164" r="1" fill="#93c5fd" opacity="0.09"/><circle cx="590" cy="299" r="3" fill="#93c5fd" opacity="0.11"/><circle cx="905" cy="194" r="1" fill="#93c5fd" opacity="0.11"/><circle cx="839" cy="249" r="2" fill="#93c5fd" opacity="0.09"/><circle cx="681" cy="575" r="3" fill="#93c5fd" opacity="0.12"/><circle cx="666" cy="454" r="3" fill="#93c5fd" opacity="0.11"/><circle cx="712" cy="531" r="2" fill="#93c5fd" opacity="0.09"/><circle cx="494" cy="78" r="2" fill="#93c5fd" opacity="0.12"/><circle cx="328" cy="76" r="1" fill="#93c5fd" opacity="0.09"/><circle cx="25" cy="361" r="1" fill="#93c5fd" opacity="0.10"/><circle cx="400" cy="25" r="2" fill="#93c5fd" opacity="0.12"/><circle cx="381" cy="314" r="1" fill="#93c5fd" opacity="0.11"/><circle cx="1016" cy="9" r="1" fill="#93c5fd" opacity="0.09"/><circle cx="317" cy="501" r="1" fill="#93c5fd" opacity="0.11"/><circle cx="434" cy="137" r="2" fill="#93c5fd" opacity="0.09"/><circle cx="913" cy="396" r="2" fill="#93c5fd" opacity="0.06"/><circle cx="109" cy="32" r="3" fill="#93c5fd" opacity="0.13"/><circle cx="735" cy="33" r="2" fill="#93c5fd" opacity="0.13"/><circle cx="195" cy="265" r="2" fill="#93c5fd" opacity="0.07"/><circle cx="682" cy="275" r="3" fill="#93c5fd" opacity="0.05"/><circle cx="1121" cy="519" r="1" fill="#93c5fd" opacity="0.14"/><circle cx="494" cy="454" r="2" fill="#93c5fd" opacity="0.06"/><circle cx="448" cy="154" r="2" fill="#93c5fd" opacity="0.11"/><circle cx="143" cy="292" r="2" fill="#93c5fd" opacity="0.07"/><circle cx="592" cy="552" r="1" fill="#93c5fd" opacity="0.09"/><circle cx="101" cy="449" r="2" fill="#93c5fd" opacity="0.12"/><circle cx="1028" cy="401" r="1" fill="#93c5fd" opacity="0.08"/>
<rect x="0" y="0" width="1200" height="6" fill="#93c5fd"/>
<g transform="translate(760,150) scale(1.35)" fill="none" stroke="#93c5fd" stroke-width="6" stroke-linejoin="round" stroke-linecap="round" opacity="0.95"><circle cx="70" cy="60" r="22"/><circle cx="180" cy="70" r="22"/><circle cx="120" cy="170" r="22"/><path d="M88 72 l40 78 M162 88 l-32 66" opacity="0.6"/><path d="M104 168 l12 14 26 -30" stroke-width="10"/></g>
<rect x="90" y="470" width="46" height="4" rx="2" fill="#93c5fd"/>
<text x="90" y="524" font-family="-apple-system, 'Segoe UI', Roboto, Arial, sans-serif" font-size="58" font-weight="700" fill="#ffffff" letter-spacing="-0.5">Janium <tspan fill="#93c5fd">Collect</tspan></text>
</svg>