<svg xmlns="http://www.w3.org/2000/svg" width="1200" height="630" viewBox="0 0 1200 630" role="img">
<defs><linearGradient id="bg" x1="0" y1="0" x2="1" y2="1"><stop offset="0" stop-color="#4a1338"/><stop offset="1" stop-color="#25091c"/></linearGradient></defs>
<rect width="1200" height="630" fill="url(#bg)"/>
<circle cx="188" cy="53" r="1" fill="#f472b6" opacity="0.05"/><circle cx="403" cy="477" r="1" fill="#f472b6" opacity="0.10"/><circle cx="763" cy="61" r="2" fill="#f472b6" opacity="0.09"/><circle cx="125" cy="123" r="2" fill="#f472b6" opacity="0.05"/><circle cx="1094" cy="217" r="3" fill="#f472b6" opacity="0.06"/><circle cx="691" cy="600" r="1" fill="#f472b6" opacity="0.13"/><circle cx="1091" cy="170" r="2" fill="#f472b6" opacity="0.13"/><circle cx="602" cy="430" r="1" fill="#f472b6" opacity="0.09"/><circle cx="996" cy="376" r="3" fill="#f472b6" opacity="0.15"/><circle cx="383" cy="108" r="3" fill="#f472b6" opacity="0.13"/><circle cx="1110" cy="263" r="2" fill="#f472b6" opacity="0.11"/><circle cx="99" cy="279" r="1" fill="#f472b6" opacity="0.13"/><circle cx="98" cy="522" r="2" fill="#f472b6" opacity="0.11"/><circle cx="249" cy="274" r="2" fill="#f472b6" opacity="0.07"/><circle cx="270" cy="86" r="3" fill="#f472b6" opacity="0.10"/><circle cx="32" cy="150" r="3" fill="#f472b6" opacity="0.08"/><circle cx="639" cy="396" r="2" fill="#f472b6" opacity="0.11"/><circle cx="193" cy="559" r="2" fill="#f472b6" opacity="0.11"/><circle cx="548" cy="568" r="1" fill="#f472b6" opacity="0.14"/><circle cx="838" cy="460" r="2" fill="#f472b6" opacity="0.15"/><circle cx="677" cy="474" r="1" fill="#f472b6" opacity="0.12"/><circle cx="228" cy="219" r="2" fill="#f472b6" opacity="0.12"/><circle cx="225" cy="402" r="2" fill="#f472b6" opacity="0.06"/><circle cx="549" cy="27" r="2" fill="#f472b6" opacity="0.13"/><circle cx="1060" cy="431" r="2" fill="#f472b6" opacity="0.09"/><circle cx="252" cy="557" r="3" fill="#f472b6" opacity="0.06"/><circle cx="858" cy="175" r="2" fill="#f472b6" opacity="0.09"/><circle cx="572" cy="203" r="1" fill="#f472b6" opacity="0.14"/><circle cx="400" cy="124" r="1" fill="#f472b6" opacity="0.09"/><circle cx="1020" cy="229" r="2" fill="#f472b6" opacity="0.13"/><circle cx="1058" cy="204" r="3" fill="#f472b6" opacity="0.09"/><circle cx="656" cy="192" r="3" fill="#f472b6" opacity="0.11"/><circle cx="849" cy="576" r="1" fill="#f472b6" opacity="0.07"/><circle cx="323" cy="18" r="2" fill="#f472b6" opacity="0.13"/><circle cx="1064" cy="262" r="2" fill="#f472b6" opacity="0.07"/><circle cx="1074" cy="549" r="3" fill="#f472b6" opacity="0.12"/><circle cx="675" cy="552" r="2" fill="#f472b6" opacity="0.13"/><circle cx="1160" cy="29" r="1" fill="#f472b6" opacity="0.11"/><circle cx="116" cy="559" r="1" fill="#f472b6" opacity="0.14"/><circle cx="1197" cy="392" r="2" fill="#f472b6" opacity="0.06"/><circle cx="37" cy="65" r="2" fill="#f472b6" opacity="0.07"/><circle cx="713" cy="51" r="1" fill="#f472b6" opacity="0.14"/><circle cx="1034" cy="207" r="2" fill="#f472b6" opacity="0.15"/><circle cx="464" cy="267" r="2" fill="#f472b6" opacity="0.14"/><circle cx="758" cy="96" r="1" fill="#f472b6" opacity="0.10"/><circle cx="925" cy="535" r="3" fill="#f472b6" opacity="0.14"/>
<rect x="0" y="0" width="1200" height="6" fill="#f472b6"/>
<g transform="translate(760,150) scale(1.35)" fill="none" stroke="#f472b6" stroke-width="6" stroke-linejoin="round" stroke-linecap="round" opacity="0.95"><g stroke-width="10" stroke-linecap="round"><line x1="30" y1="120" x2="30" y2="120"/><line x1="52" y1="95" x2="52" y2="145"/><line x1="74" y1="60" x2="74" y2="180"/><line x1="96" y1="100" x2="96" y2="140"/><line x1="118" y1="40" x2="118" y2="200"/><line x1="140" y1="85" x2="140" y2="155"/><line x1="162" y1="70" x2="162" y2="170"/><line x1="184" y1="105" x2="184" y2="135"/><line x1="206" y1="120" x2="206" y2="120"/></g><path d="M92 232 l40 -22 -40 -22 z" stroke-width="6"/></g>
<rect x="90" y="470" width="46" height="4" rx="2" fill="#f472b6"/>
<text x="90" y="524" font-family="-apple-system, 'Segoe UI', Roboto, Arial, sans-serif" font-size="58" font-weight="700" fill="#ffffff" letter-spacing="-0.5">Janium <tspan fill="#f472b6">Collect</tspan></text>
</svg>