<svg xmlns="http://www.w3.org/2000/svg" width="1200" height="630" viewBox="0 0 1200 630" role="img">
<defs><linearGradient id="bg" x1="0" y1="0" x2="1" y2="1"><stop offset="0" stop-color="#2b1b63"/><stop offset="1" stop-color="#171034"/></linearGradient></defs>
<rect width="1200" height="630" fill="url(#bg)"/>
<circle cx="824" cy="21" r="2" fill="#a78bfa" opacity="0.07"/><circle cx="16" cy="362" r="1" fill="#a78bfa" opacity="0.05"/><circle cx="344" cy="243" r="2" fill="#a78bfa" opacity="0.12"/><circle cx="949" cy="105" r="3" fill="#a78bfa" opacity="0.12"/><circle cx="784" cy="559" r="1" fill="#a78bfa" opacity="0.08"/><circle cx="6" cy="423" r="2" fill="#a78bfa" opacity="0.11"/><circle cx="566" cy="149" r="2" fill="#a78bfa" opacity="0.11"/><circle cx="876" cy="619" r="3" fill="#a78bfa" opacity="0.13"/><circle cx="43" cy="94" r="3" fill="#a78bfa" opacity="0.15"/><circle cx="239" cy="598" r="3" fill="#a78bfa" opacity="0.10"/><circle cx="1155" cy="133" r="2" fill="#a78bfa" opacity="0.10"/><circle cx="1043" cy="131" r="2" fill="#a78bfa" opacity="0.10"/>
<rect x="0" y="0" width="1200" height="6" fill="#a78bfa"/>
<g transform="translate(740,140) scale(1.3)" fill="none" stroke="#a78bfa" stroke-width="6" stroke-linejoin="round" stroke-linecap="round" opacity="0.95">
  <rect x="20" y="30" width="140" height="180" rx="8"/>
  <line x1="44" y1="70" x2="136" y2="70"/>
  <line x1="44" y1="98" x2="136" y2="98"/>
  <line x1="44" y1="126" x2="110" y2="126"/>
  <circle cx="170" cy="168" r="48"/>
  <path d="M150 168 l14 16 28 -32" stroke-width="8"/>
</g>
<rect x="90" y="470" width="46" height="4" rx="2" fill="#a78bfa"/>
<text x="90" y="524" font-family="-apple-system, 'Segoe UI', Roboto, Arial, sans-serif" font-size="58" font-weight="700" fill="#ffffff" letter-spacing="-0.5">Janium <tspan fill="#a78bfa">Collect</tspan></text>
</svg>
